<?xml version="1.0" encoding="UTF-8"?>
<svg xmlns="http://www.w3.org/2000/svg" xmlns:xlink="http://www.w3.org/1999/xlink" width="113pt" height="42pt" viewBox="0 0 113 42" version="1.1">
<defs>
<clipPath id="clip1">
  <path d="M 10 21 L 32 21 L 32 41.941406 L 10 41.941406 Z "/>
</clipPath>
<clipPath id="clip2">
  <path d="M 75 32 L 84 32 L 84 41.941406 L 75 41.941406 Z "/>
</clipPath>
<clipPath id="clip3">
  <path d="M 85 34 L 90 34 L 90 41.941406 L 85 41.941406 Z "/>
</clipPath>
<clipPath id="clip4">
  <path d="M 90 34 L 98 34 L 98 41.941406 L 90 41.941406 Z "/>
</clipPath>
<clipPath id="clip5">
  <path d="M 98 35 L 105 35 L 105 41.941406 L 98 41.941406 Z "/>
</clipPath>
<clipPath id="clip6">
  <path d="M 105 35 L 112.875 35 L 112.875 41.941406 L 105 41.941406 Z "/>
</clipPath>
</defs>
<g id="surface1">
<path style=" stroke:none;fill-rule:nonzero;fill:rgb(93.081665%,10.154724%,32.18689%);fill-opacity:1;" d="M 0 10.882813 L 20.746094 10.882813 L 20.746094 31.628906 L 0 31.628906 Z "/>
<path style=" stroke:none;fill-rule:nonzero;fill:rgb(93.081665%,10.154724%,32.18689%);fill-opacity:1;" d="M 22.820313 10.882813 L 43.566406 10.882813 L 43.566406 31.628906 L 22.820313 31.628906 Z "/>
<path style=" stroke:none;fill-rule:nonzero;fill:rgb(93.081665%,10.154724%,32.18689%);fill-opacity:1;" d="M 45.640625 10.882813 L 66.386719 10.882813 L 66.386719 31.628906 L 45.640625 31.628906 Z "/>
<g clip-path="url(#clip1)" clip-rule="nonzero">
<path style=" stroke:none;fill-rule:nonzero;fill:rgb(93.081665%,10.154724%,32.18689%);fill-opacity:1;" d="M 10.371094 21.253906 L 31.117188 21.253906 L 31.117188 41.941406 L 10.371094 41.941406 Z "/>
</g>
<path style=" stroke:none;fill-rule:nonzero;fill:rgb(93.081665%,10.154724%,32.18689%);fill-opacity:1;" d="M 35.269531 0.507813 L 56.011719 0.507813 L 56.011719 21.253906 L 35.269531 21.253906 Z "/>
<path style=" stroke:none;fill-rule:nonzero;fill:rgb(2.963257%,4.216003%,3.823853%);fill-opacity:1;" d="M 75.105469 14.210938 L 68.460938 14.210938 L 68.460938 10.890625 L 85.582031 10.890625 L 85.582031 14.210938 L 78.941406 14.210938 L 78.941406 31.582031 L 75.105469 31.582031 L 75.105469 14.210938 "/>
<path style=" stroke:none;fill-rule:nonzero;fill:rgb(2.963257%,4.216003%,3.823853%);fill-opacity:1;" d="M 104.828125 23.980469 C 104.828125 25.226563 104.605469 26.351563 104.15625 27.355469 C 103.707031 28.355469 103.097656 29.210938 102.320313 29.910156 C 101.546875 30.613281 100.632813 31.152344 99.570313 31.53125 C 98.511719 31.910156 97.359375 32.101563 96.113281 32.101563 C 94.871094 32.101563 93.722656 31.910156 92.660156 31.53125 C 91.601563 31.152344 90.679688 30.613281 89.894531 29.910156 C 89.109375 29.210938 88.496094 28.355469 88.0625 27.355469 C 87.621094 26.351563 87.402344 25.226563 87.402344 23.980469 L 87.402344 10.890625 L 91.242188 10.890625 L 91.242188 23.847656 C 91.242188 24.351563 91.320313 24.882813 91.484375 25.4375 C 91.648438 25.992188 91.917969 26.503906 92.296875 26.972656 C 92.675781 27.4375 93.175781 27.820313 93.800781 28.121094 C 94.421875 28.425781 95.195313 28.574219 96.113281 28.574219 C 97.035156 28.574219 97.808594 28.425781 98.429688 28.121094 C 99.054688 27.820313 99.554688 27.4375 99.933594 26.972656 C 100.3125 26.503906 100.582031 25.992188 100.746094 25.4375 C 100.910156 24.882813 100.992188 24.351563 100.992188 23.847656 L 100.992188 10.890625 L 104.828125 10.890625 L 104.828125 23.980469 "/>
<g clip-path="url(#clip2)" clip-rule="nonzero">
<path style=" stroke:none;fill-rule:nonzero;fill:rgb(2.963257%,4.216003%,3.823853%);fill-opacity:1;" d="M 83.257813 34.433594 C 82.496094 34.105469 81.511719 33.949219 80.722656 33.949219 C 78.429688 33.949219 77.160156 35.390625 77.160156 37.265625 C 77.160156 39.128906 78.402344 40.527344 80.496094 40.527344 C 81.03125 40.527344 81.457031 40.476563 81.792969 40.398438 L 81.792969 38.011719 L 79.710938 38.011719 L 79.710938 36.570313 L 83.679688 36.570313 L 83.679688 41.5 C 82.636719 41.761719 81.554688 41.972656 80.496094 41.972656 C 77.316406 41.972656 75.105469 40.488281 75.105469 37.394531 C 75.105469 34.261719 77.160156 32.507813 80.496094 32.507813 C 81.636719 32.507813 82.539063 32.648438 83.382813 32.886719 L 83.257813 34.433594 "/>
</g>
<g clip-path="url(#clip3)" clip-rule="nonzero">
<path style=" stroke:none;fill-rule:nonzero;fill:rgb(2.963257%,4.216003%,3.823853%);fill-opacity:1;" d="M 85.621094 35.0625 L 87.296875 35.0625 L 87.296875 36.597656 L 87.324219 36.597656 C 87.40625 35.96875 88.183594 34.90625 89.308594 34.90625 C 89.492188 34.90625 89.6875 34.90625 89.886719 34.957031 L 89.886719 36.726563 C 89.71875 36.636719 89.378906 36.585938 89.039063 36.585938 C 87.507813 36.585938 87.507813 38.367188 87.507813 39.335938 L 87.507813 41.8125 L 85.621094 41.8125 L 85.621094 35.0625 "/>
</g>
<g clip-path="url(#clip4)" clip-rule="nonzero">
<path style=" stroke:none;fill-rule:nonzero;fill:rgb(2.963257%,4.216003%,3.823853%);fill-opacity:1;" d="M 93.585938 40.6875 C 94.164063 40.6875 94.613281 40.449219 94.910156 40.085938 C 95.21875 39.703125 95.304688 39.21875 95.304688 38.695313 L 94.488281 38.695313 C 93.644531 38.695313 92.390625 38.824219 92.390625 39.859375 C 92.390625 40.4375 92.910156 40.6875 93.585938 40.6875 Z M 91.375 35.417969 C 92.105469 35.101563 93.09375 34.90625 93.894531 34.90625 C 96.105469 34.90625 97.019531 35.757813 97.019531 37.75 L 97.019531 38.617188 C 97.019531 39.296875 97.035156 39.808594 97.050781 40.308594 C 97.0625 40.816406 97.089844 41.289063 97.132813 41.8125 L 95.472656 41.8125 C 95.402344 41.460938 95.402344 41.015625 95.390625 40.804688 L 95.359375 40.804688 C 94.925781 41.550781 93.980469 41.972656 93.121094 41.972656 C 91.84375 41.972656 90.589844 41.25 90.589844 39.964844 C 90.589844 38.957031 91.109375 38.367188 91.828125 38.039063 C 92.546875 37.710938 93.472656 37.644531 94.261719 37.644531 L 95.304688 37.644531 C 95.304688 36.558594 94.78125 36.191406 93.671875 36.191406 C 92.867188 36.191406 92.066406 36.476563 91.433594 36.925781 L 91.375 35.417969 "/>
</g>
<g clip-path="url(#clip5)" clip-rule="nonzero">
<path style=" stroke:none;fill-rule:nonzero;fill:rgb(2.963257%,4.216003%,3.823853%);fill-opacity:1;" d="M 98.570313 35.0625 L 104.3125 35.0625 L 104.3125 36.503906 L 100.707031 40.449219 L 104.4375 40.449219 L 104.4375 41.8125 L 98.414063 41.8125 L 98.414063 40.386719 L 102.085938 36.425781 L 98.570313 36.425781 L 98.570313 35.0625 "/>
</g>
<g clip-path="url(#clip6)" clip-rule="nonzero">
<path style=" stroke:none;fill-rule:nonzero;fill:rgb(93.081665%,10.154724%,32.18689%);fill-opacity:1;" d="M 105.964844 35.089844 L 112.875 35.089844 L 112.875 41.941406 L 105.964844 41.941406 Z "/>
</g>
</g>
</svg>
